# xmcd
#
# Track frame offsets:
#	150
#	21318
#	38121
#	62141
#	80830
#	101864
#	116472
#	138535
#	158451
#	183939
#	189709
#
# Disc length: 2717 seconds
#
# Revision: 18
# Processed by: cddbd v1.5.2PL0 Copyright (c) Steve Scherf et al.
# Submitted via: Jack! The Knife 20 Magnifico
#
DISCID=950a9b0b
DTITLE=Saxon - Solid Ball Of Rock
DYEAR=1991
DGENRE=Heavy Metal
TTITLE0=Solid Ball Of Rock
TTITLE1=Altar Of The Gods
TTITLE2=Requiem (We Will Remember)
TTITLE3=Lights In The Sky
TTITLE4=I Just Can't Get Enough
TTITLE5=Baptism Of Fire
TTITLE6=Ain't Gonna Take It
TTITLE7=I'm On Fire
TTITLE8=Overture In B-Minor - Refugee
TTITLE9=Bavarian Beaver
TTITLE10=Crash Drive
EXTD=Kalle Trapp and Saxon
EXTT0=Tchaikovsky, Broadbent
EXTT1=Timothy Carter
EXTT2=Byford, Oliver, Carter, Glockler
EXTT3=Byford, Quinn, Johnson
EXTT4=Byford, Quinn, Johnson
EXTT5=Timothy Carter
EXTT6=Byford, Oliver, Carter, Glockler
EXTT7=Timothy Carter
EXTT8=Byford, Carter
EXTT9=Timothy Carter
EXTT10=Timothy Carter
PLAYORDER=
